<?xml version="1.0" encoding="UTF-8"?>
<svg width="20px" height="20px" viewBox="0 0 20 20" version="1.1" xmlns="http://www.w3.org/2000/svg" xmlns:xlink="http://www.w3.org/1999/xlink">
    <title>ic_approve_smoke</title>
    <g id="Service-Portal" stroke="none" stroke-width="1" fill="none" fill-rule="evenodd">
        <g id="Artboard" transform="translate(-510.000000, -407.000000)" fill="#DFE3E8">
            <g id="ic_approve_purple-copy" transform="translate(510.000000, 407.000000)">
                <path d="M10,0.312499976 C4.64972655,0.312499976 0.312499976,4.64972655 0.312499976,10 C0.312499976,15.3502735 4.64972655,19.6875 10,19.6875 C15.3502735,19.6875 19.6875,15.3502735 19.6875,10 C19.6875,4.64972655 15.3502735,0.312499976 10,0.312499976 Z M10,18.4375 C5.36468749,18.4375 1.56249998,14.6853516 1.56249998,10 C1.56249998,5.36472655 5.31464843,1.56249998 10,1.56249998 C14.6353125,1.56249998 18.4375,5.31464843 18.4375,10 C18.4375,14.6352734 14.6853516,18.4375 10,18.4375 Z M15.5324219,7.69683593 L8.48242187,14.6902734 C8.29863281,14.8725781 8.00183593,14.8714063 7.81953124,14.6876172 L4.46492186,11.3058984 C4.28261717,11.1221094 4.28378905,10.8253125 4.46757811,10.6430078 L4.80039061,10.3128906 C4.98417967,10.1305859 5.28097655,10.1317578 5.46328124,10.3155469 L8.15765625,13.0316797 L14.5420703,6.69847655 C14.7258594,6.51617187 15.0226563,6.51734374 15.204961,6.7011328 L15.5350781,7.03394531 C15.7174219,7.21773437 15.716211,7.51453124 15.5324219,7.69683593 L15.5324219,7.69683593 Z" id="Worfklow,-Status-&amp;-UI/01-Light/check-circle"></path>
            </g>
        </g>
    </g>
</svg>