<?xml version="1.0" encoding="UTF-8"?>
<svg width="20px" height="20px" viewBox="0 0 20 20" version="1.1" xmlns="http://www.w3.org/2000/svg" xmlns:xlink="http://www.w3.org/1999/xlink">
    <title>ic_reject_slate</title>
    <g id="Service-Portal" stroke="none" stroke-width="1" fill="none" fill-rule="evenodd">
        <g id="Artboard" transform="translate(-369.000000, -385.000000)" fill="#637381">
            <g id="Energy-&amp;-Resources/01-Light/charging-station" transform="translate(369.000000, 385.000000)">
                <path d="M10,0.312499976 C4.64843749,0.312499976 0.312499976,4.64843749 0.312499976,10 C0.312499976,15.3515625 4.64843749,19.6875 10,19.6875 C15.3515625,19.6875 19.6875,15.3515625 19.6875,10 C19.6875,4.64843749 15.3515625,0.312499976 10,0.312499976 Z M10,18.4375 C5.36328124,18.4375 1.56249998,14.6835938 1.56249998,10 C1.56249998,5.36328124 5.31640624,1.56249998 10,1.56249998 C14.6367188,1.56249998 18.4375,5.31640624 18.4375,10 C18.4375,14.6367188 14.6835938,18.4375 10,18.4375 Z M13.703125,7.29296874 L10.9960938,10 L13.703125,12.7070313 C13.8867188,12.890625 13.8867188,13.1875 13.703125,13.3710938 L13.3710938,13.703125 C13.1875,13.8867188 12.890625,13.8867188 12.7070313,13.703125 L10,10.9960938 L7.29296874,13.703125 C7.10937499,13.8867188 6.81249999,13.8867188 6.62890624,13.703125 L6.29687499,13.3710938 C6.11328124,13.1875 6.11328124,12.890625 6.29687499,12.7070313 L9.00390625,10 L6.29687499,7.29296874 C6.11328124,7.10937499 6.11328124,6.81249999 6.29687499,6.62890624 L6.62890624,6.29687499 C6.81249999,6.11328124 7.10937499,6.11328124 7.29296874,6.29687499 L10,9.00390625 L12.7070313,6.29687499 C12.890625,6.11328124 13.1875,6.11328124 13.3710938,6.29687499 L13.703125,6.62890624 C13.8828125,6.81249999 13.8828125,7.10937499 13.703125,7.29296874 Z" id="Worfklow,-Status-&amp;-UI/01-Light/times-circle"></path>
            </g>
        </g>
    </g>
</svg>